<svg width="382" height="50" viewBox="0 0 382 50" fill="none" xmlns="http://www.w3.org/2000/svg">
<mask id="path-1-inside-1" fill="white">
<path fill-rule="evenodd" clip-rule="evenodd" d="M5 0C2.23858 0 0 2.23858 0 5V45C0 47.7614 2.23857 50 5 50H382V43C379.694 43 377.825 41.2091 377.825 39C377.825 36.7909 379.694 35 382 35V29C379.694 29 377.825 27.2091 377.825 25C377.825 22.7909 379.694 21 382 21V15C379.694 15 377.825 13.2091 377.825 11C377.825 8.79086 379.694 7 382 7V0H5Z"/>
</mask>
<path fill-rule="evenodd" clip-rule="evenodd" d="M5 0C2.23858 0 0 2.23858 0 5V45C0 47.7614 2.23857 50 5 50H382V43C379.694 43 377.825 41.2091 377.825 39C377.825 36.7909 379.694 35 382 35V29C379.694 29 377.825 27.2091 377.825 25C377.825 22.7909 379.694 21 382 21V15C379.694 15 377.825 13.2091 377.825 11C377.825 8.79086 379.694 7 382 7V0H5Z" fill="#F5FDDA"/>
<path d="M382 50V51.5H383.5V50H382ZM382 43H383.5V41.5H382V43ZM382 35V36.5H383.5V35H382ZM382 29H383.5V27.5H382V29ZM382 21V22.5H383.5V21H382ZM382 15H383.5V13.5H382V15ZM382 7V8.5H383.5V7H382ZM382 0H383.5V-1.5H382V0ZM1.5 5C1.5 3.067 3.067 1.5 5 1.5V-1.5C1.41015 -1.5 -1.5 1.41015 -1.5 5H1.5ZM1.5 45V5H-1.5V45H1.5ZM5 48.5C3.067 48.5 1.5 46.933 1.5 45H-1.5C-1.5 48.5899 1.41015 51.5 5 51.5V48.5ZM382 48.5H5V51.5H382V48.5ZM380.5 43V50H383.5V43H380.5ZM382 41.5C380.462 41.5 379.325 40.3209 379.325 39H376.325C376.325 42.0974 378.927 44.5 382 44.5V41.5ZM379.325 39C379.325 37.6791 380.462 36.5 382 36.5V33.5C378.927 33.5 376.325 35.9026 376.325 39H379.325ZM380.5 29V35H383.5V29H380.5ZM376.325 25C376.325 28.0974 378.927 30.5 382 30.5V27.5C380.462 27.5 379.325 26.3209 379.325 25H376.325ZM382 19.5C378.927 19.5 376.325 21.9026 376.325 25H379.325C379.325 23.6791 380.462 22.5 382 22.5V19.5ZM380.5 15V21H383.5V15H380.5ZM376.325 11C376.325 14.0974 378.927 16.5 382 16.5V13.5C380.462 13.5 379.325 12.3209 379.325 11H376.325ZM382 5.5C378.927 5.5 376.325 7.9026 376.325 11H379.325C379.325 9.67913 380.462 8.5 382 8.5V5.5ZM380.5 0V7H383.5V0H380.5ZM5 1.5H382V-1.5H5V1.5Z" fill="#81BE33" mask="url(#path-1-inside-1)"/>
</svg>
