<svg width="14" height="13" viewBox="0 0 14 13" fill="none" xmlns="http://www.w3.org/2000/svg">
<path d="M13.1892 4.51708L9.22203 3.94052L7.44859 0.345208C7.40015 0.246771 7.32046 0.167083 7.22203 0.118646C6.97515 -0.00322908 6.67515 0.0983334 6.55171 0.345208L4.77828 3.94052L0.811089 4.51708C0.701714 4.53271 0.601714 4.58427 0.525151 4.6624C0.432592 4.75753 0.381587 4.88552 0.383345 5.01824C0.385103 5.15096 0.439479 5.27756 0.534526 5.37021L3.40484 8.16865L2.72671 12.1202C2.71081 12.2121 2.72098 12.3067 2.75608 12.3931C2.79117 12.4795 2.84978 12.5544 2.92526 12.6092C3.00074 12.6641 3.09007 12.6966 3.18312 12.7033C3.27617 12.7099 3.36922 12.6903 3.45171 12.6468L7.00015 10.7811L10.5486 12.6468C10.6455 12.6983 10.758 12.7155 10.8658 12.6968C11.1377 12.6499 11.3205 12.3921 11.2736 12.1202L10.5955 8.16865L13.4658 5.37021C13.5439 5.29365 13.5955 5.19365 13.6111 5.08427C13.6533 4.81083 13.4627 4.55771 13.1892 4.51708Z" fill="#E56024"/>
</svg>
